<svg width="123" height="19" viewBox="0 0 123 19" fill="none" xmlns="http://www.w3.org/2000/svg">
<path d="M57.9258 13.5234C57.9258 12.8594 57.6914 12.3516 57.2227 12C56.7539 11.6406 55.9102 11.2656 54.6914 10.875C53.4727 10.4766 52.5078 10.0859 51.7969 9.70312C49.8594 8.65625 48.8906 7.24609 48.8906 5.47266C48.8906 4.55078 49.1484 3.73047 49.6641 3.01172C50.1875 2.28516 50.9336 1.71875 51.9023 1.3125C52.8789 0.90625 53.9727 0.703125 55.1836 0.703125C56.4023 0.703125 57.4883 0.925781 58.4414 1.37109C59.3945 1.80859 60.1328 2.42969 60.6562 3.23438C61.1875 4.03906 61.4531 4.95312 61.4531 5.97656H57.9375C57.9375 5.19531 57.6914 4.58984 57.1992 4.16016C56.707 3.72266 56.0156 3.50391 55.125 3.50391C54.2656 3.50391 53.5977 3.6875 53.1211 4.05469C52.6445 4.41406 52.4062 4.89062 52.4062 5.48438C52.4062 6.03906 52.6836 6.50391 53.2383 6.87891C53.8008 7.25391 54.625 7.60547 55.7109 7.93359C57.7109 8.53516 59.168 9.28125 60.082 10.1719C60.9961 11.0625 61.4531 12.1719 61.4531 13.5C61.4531 14.9766 60.8945 16.1367 59.7773 16.9805C58.6602 17.8164 57.1562 18.2344 55.2656 18.2344C53.9531 18.2344 52.7578 17.9961 51.6797 17.5195C50.6016 17.0352 49.7773 16.375 49.207 15.5391C48.6445 14.7031 48.3633 13.7344 48.3633 12.6328H51.8906C51.8906 14.5156 53.0156 15.457 55.2656 15.457C56.1016 15.457 56.7539 15.2891 57.2227 14.9531C57.6914 14.6094 57.9258 14.1328 57.9258 13.5234ZM73.4766 14.4844H67.3125L66.1406 18H62.4023L68.7539 0.9375H72.0117L78.3984 18H74.6602L73.4766 14.4844ZM68.2617 11.6367H72.5273L70.3828 5.25L68.2617 11.6367ZM83.5078 15.1758H90.9727V18H79.9922V0.9375H83.5078V15.1758ZM102.867 14.4844H96.7031L95.5312 18H91.793L98.1445 0.9375H101.402L107.789 18H104.051L102.867 14.4844ZM97.6523 11.6367H101.918L99.7734 5.25L97.6523 11.6367ZM109.383 18V0.9375H114.633C116.133 0.9375 117.473 1.27734 118.652 1.95703C119.84 2.62891 120.766 3.58984 121.43 4.83984C122.094 6.08203 122.426 7.49609 122.426 9.08203V9.86719C122.426 11.4531 122.098 12.8633 121.441 14.0977C120.793 15.332 119.875 16.2891 118.688 16.9688C117.5 17.6484 116.16 17.9922 114.668 18H109.383ZM112.898 3.78516V15.1758H114.598C115.973 15.1758 117.023 14.7266 117.75 13.8281C118.477 12.9297 118.848 11.6445 118.863 9.97266V9.07031C118.863 7.33594 118.504 6.02344 117.785 5.13281C117.066 4.23438 116.016 3.78516 114.633 3.78516H112.898Z" fill="#585858"/>
</svg>
